<svg width="42" height="42" viewBox="0 0 42 42" fill="none" xmlns="http://www.w3.org/2000/svg">
<path d="M21 8.5V21H30.375M39.75 21C39.75 23.4623 39.265 25.9005 38.3227 28.1753C37.3805 30.4502 35.9993 32.5172 34.2582 34.2582C32.5172 35.9993 30.4502 37.3805 28.1753 38.3227C25.9005 39.265 23.4623 39.75 21 39.75C18.5377 39.75 16.0995 39.265 13.8247 38.3227C11.5498 37.3805 9.48285 35.9993 7.74175 34.2582C6.00065 32.5172 4.61953 30.4502 3.67726 28.1753C2.73498 25.9005 2.25 23.4623 2.25 21C2.25 16.0272 4.22544 11.2581 7.74175 7.74175C11.2581 4.22544 16.0272 2.25 21 2.25C25.9728 2.25 30.7419 4.22544 34.2582 7.74175C37.7746 11.2581 39.75 16.0272 39.75 21Z" stroke="white" stroke-width="3" stroke-linecap="round" stroke-linejoin="round"/>
</svg>
